<svg width="72" height="72" viewBox="0 0 72 72" fill="none" xmlns="http://www.w3.org/2000/svg">
<g clip-path="url(#clip0_1790_24766)">
<path d="M15.137 28.417C15.3126 28.6797 15.5388 28.9049 15.8023 29.0794C16.0658 29.2539 16.3614 29.3742 16.6718 29.4334C16.8243 29.464 16.9795 29.4793 17.135 29.479C17.1878 29.479 17.237 29.4598 17.2886 29.4562L31.6562 50.9014L23.9534 62.3998C16.7222 54.175 10.3058 52.0918 7.04183 51.5902C6.07493 51.4431 5.08625 51.6017 4.21387 52.0438C3.34148 52.4859 2.62897 53.1895 2.17583 54.0562C0.248758 57.4773 -0.423519 61.4638 0.275028 65.3278C0.443518 66.1103 0.801729 66.8395 1.31815 67.4511C1.83457 68.0627 2.49338 68.5381 3.23663 68.8354C8.273 70.8997 13.66 71.9741 19.103 71.9998C20.7604 72.0036 22.4161 71.8913 24.0578 71.6638C24.8878 71.5416 25.683 71.2467 26.3919 70.7982C27.1009 70.3497 27.7079 69.7574 28.1738 69.0598L35.9966 57.3838L43.8134 69.0514C44.2771 69.753 44.884 70.3485 45.5942 70.799C46.3044 71.2494 47.1019 71.5446 47.9342 71.665C49.5745 71.8913 51.2285 72.0031 52.8842 71.9998C58.3332 71.9745 63.7265 70.901 68.7698 68.8378C69.5095 68.5354 70.1643 68.0575 70.6778 67.4453C71.1913 66.8332 71.548 66.1051 71.717 65.3242C72.4173 61.4568 71.7428 57.4664 69.8102 54.0442C69.351 53.1844 68.6375 52.4873 67.7672 52.0483C66.8969 51.6093 65.9122 51.4497 64.9478 51.5914C61.6862 52.0882 55.2722 54.1666 48.0362 62.3974L40.3346 50.9098L54.7046 29.4538C54.755 29.4538 54.803 29.4754 54.8534 29.4754C55.2484 29.4759 55.6375 29.3795 55.9865 29.1946C56.3355 29.0096 56.6338 28.7417 56.855 28.4146L71.585 6.42335C71.9376 5.89138 72.0653 5.24143 71.94 4.61562C71.8148 3.98981 71.4468 3.43904 70.9166 3.08375L66.9122 0.392153C66.3794 0.0483037 65.7333 -0.0736354 65.1118 0.0523679C64.4903 0.178371 63.9427 0.542333 63.5858 1.06655L48.8474 23.071C48.6213 23.4207 48.4895 23.8229 48.4649 24.2387C48.4403 24.6544 48.5237 25.0694 48.707 25.4434L35.9966 44.4262L23.2766 25.4458C23.4605 25.0694 23.5437 24.6519 23.5183 24.2338C23.4929 23.8158 23.3596 23.4114 23.1314 23.0602L8.39663 1.06295C8.03787 0.538977 7.48816 0.176349 6.86527 0.0527591C6.24238 -0.0708311 5.59587 0.0544466 5.06423 0.401753L1.06583 3.08615C0.536317 3.44191 0.169485 3.99312 0.0457625 4.61893C-0.0779596 5.24474 0.0515259 5.89407 0.405828 6.42455L15.137 28.417ZM26.177 67.7254C25.8991 68.1431 25.5365 68.4979 25.1127 68.7666C24.6889 69.0353 24.2134 69.2121 23.717 69.2854C17.0703 70.117 10.3215 69.1965 4.14023 66.6154C3.76374 66.4672 3.42918 66.2292 3.16565 65.9222C2.90213 65.6151 2.71764 65.2484 2.62823 64.8538C2.04142 61.5311 2.63262 58.1079 4.29983 55.1746C4.49071 54.8023 4.78032 54.4898 5.13696 54.2711C5.4936 54.0525 5.90351 53.9362 6.32183 53.935C6.44238 53.9344 6.56277 53.9437 6.68183 53.9626C9.76583 54.4354 16.0046 56.5198 23.1482 65.1502C23.2648 65.2971 23.4154 65.4134 23.5871 65.4889C23.7588 65.5644 23.9464 65.5968 24.1334 65.5834C24.3202 65.5741 24.5022 65.5213 24.6649 65.4292C24.8276 65.3371 24.9665 65.2083 25.0706 65.053L34.4474 51.0538L36.4526 52.3966L26.177 67.7254ZM46.9214 65.0482C47.0255 65.2035 47.1645 65.3323 47.3272 65.4244C47.4899 65.5165 47.6719 65.5693 47.8586 65.5786C48.0455 65.5899 48.2323 65.5565 48.4036 65.4811C48.575 65.4058 48.7259 65.2907 48.8438 65.1454C55.9946 56.5054 62.2274 54.4318 65.3078 53.9626C65.7813 53.8903 66.2655 53.9681 66.6925 54.1851C67.1194 54.402 67.4678 54.7472 67.6886 55.1722C69.3587 58.1001 69.953 61.5196 69.3686 64.8394C69.279 65.2347 69.0952 65.6026 68.8331 65.9117C68.5709 66.2209 68.238 66.4623 67.8626 66.6154C61.6763 69.1968 54.9231 70.118 48.2714 69.2878C47.774 69.2151 47.2975 69.0379 46.8735 68.7677C46.4495 68.4976 46.0875 68.1407 45.8114 67.7206L37.4366 55.2274L38.885 53.0674L46.9214 65.0482ZM65.5862 2.39975L69.5966 5.08295L54.851 27.0742L50.891 24.427L50.8478 24.3982L65.5862 2.39975ZM50.5166 27.0598L51.521 27.7306L52.5242 28.4026L37.7846 50.3998L35.7782 49.057L50.5166 27.0598ZM34.5566 46.5826L33.1082 48.7426L19.4702 28.4002L21.4742 27.061L34.5566 46.5826ZM2.40623 5.07575L6.40943 2.39975L21.1286 24.3958L17.135 27.0706H17.129L2.39663 5.08535L2.40623 5.07575Z" fill="#212121"/>
<path d="M8.21762 56.7597C7.91166 56.6915 7.59115 56.7457 7.32463 56.9107C7.05812 57.0758 6.86678 57.3385 6.79152 57.6428C6.71627 57.9472 6.76308 58.2688 6.92195 58.5391C7.08082 58.8093 7.33912 59.0067 7.64162 59.0889C10.2898 59.8997 12.7957 61.1174 15.0696 62.6985C15.3341 62.8756 15.6581 62.9404 15.9703 62.8786C16.2826 62.8168 16.5575 62.6336 16.7346 62.3691C16.9117 62.1046 16.9765 61.7806 16.9148 61.4684C16.853 61.1561 16.6697 60.8812 16.4052 60.7041C13.905 58.959 11.1406 57.6272 8.21762 56.7597ZM15.096 64.2249L6.75602 61.5381C6.45288 61.4405 6.1234 61.4674 5.84007 61.6128C5.55674 61.7582 5.34277 62.0101 5.24522 62.3133C5.14767 62.6164 5.17455 62.9459 5.31992 63.2292C5.4653 63.5126 5.71728 63.7265 6.02042 63.8241L14.3604 66.5097C14.4796 66.5476 14.6038 66.567 14.7288 66.5673C15.0148 66.5673 15.2915 66.4651 15.5088 66.2791C15.7261 66.0932 15.8699 65.8357 15.9142 65.5531C15.9585 65.2706 15.9004 64.9814 15.7504 64.7379C15.6004 64.4944 15.3683 64.3124 15.096 64.2249ZM56.2704 62.8989C56.5076 62.8986 56.7393 62.828 56.9364 62.6961C59.2098 61.115 61.7154 59.8972 64.3632 59.0865C64.6657 59.0042 64.924 58.8069 65.0829 58.5367C65.2418 58.2664 65.2886 57.9448 65.2133 57.6404C65.1381 57.3361 64.9467 57.0734 64.6802 56.9083C64.4137 56.7433 64.0932 56.6891 63.7872 56.7573C60.8646 57.6247 58.1005 58.9565 55.6008 60.7017C55.3868 60.8449 55.2246 61.0533 55.1381 61.2958C55.0516 61.5384 55.0454 61.8024 55.1205 62.0487C55.1955 62.2951 55.3479 62.5107 55.555 62.6638C55.762 62.8169 56.0129 62.8993 56.2704 62.8989ZM56.9088 64.2249C56.6364 64.3125 56.4043 64.4945 56.2543 64.7382C56.1043 64.9818 56.0462 65.2711 56.0907 65.5537C56.1352 65.8364 56.2792 66.0939 56.4967 66.2797C56.7143 66.4656 56.9911 66.5675 57.2772 66.5673C57.4018 66.5669 57.5257 66.5475 57.6444 66.5097L65.9844 63.8241C66.2876 63.7265 66.5395 63.5126 66.6849 63.2292C66.8303 62.9459 66.8572 62.6164 66.7596 62.3133C66.6621 62.0101 66.4481 61.7582 66.1648 61.6128C65.8814 61.4674 65.552 61.4405 65.2488 61.5381L56.9088 64.2249Z" fill="#212121"/>
</g>
<defs>
<clipPath id="clip0_1790_24766">
<rect width="72" height="72" fill="white"/>
</clipPath>
</defs>
</svg>
