<svg width="73" height="73" viewBox="0 0 73 73" fill="none" xmlns="http://www.w3.org/2000/svg">
<path d="M43.259 50.0044C43.259 49.706 43.3775 49.4199 43.5885 49.2089C43.7994 48.9979 44.0856 48.8794 44.384 48.8794C44.6823 48.8794 44.9685 48.9979 45.1795 49.2089C45.3904 49.4199 45.509 49.706 45.509 50.0044C45.509 50.3028 45.3904 50.5889 45.1795 50.7999C44.9685 51.0109 44.6823 51.1294 44.384 51.1294C44.0856 51.1294 43.7994 51.0109 43.5885 50.7999C43.3775 50.5889 43.259 50.3028 43.259 50.0044ZM44.384 55.6294C44.6823 55.6294 44.9685 55.5109 45.1795 55.2999C45.3904 55.0889 45.509 54.8028 45.509 54.5044C45.509 54.206 45.3904 53.9199 45.1795 53.7089C44.9685 53.4979 44.6823 53.3794 44.384 53.3794C44.0856 53.3794 43.7994 53.4979 43.5885 53.7089C43.3775 53.9199 43.259 54.206 43.259 54.5044C43.259 54.8028 43.3775 55.0889 43.5885 55.2999C43.7994 55.5109 44.0856 55.6294 44.384 55.6294ZM15.3784 31.5287C15.3397 31.6936 15.3391 31.8651 15.3763 32.0303C15.4136 32.1956 15.4879 32.3502 15.5937 32.4825L21.9716 40.514L32.009 35.7904V32.793C29.9392 30.9379 28.634 28.2462 28.634 25.2544V18.0552L27.7555 16.9571C27.618 16.7848 27.5342 16.5758 27.5146 16.3562L27.5135 16.3563C27.4911 16.111 27.009 10.3012 30.6502 6.31404C32.8073 3.9521 35.914 2.75439 39.884 2.75439C43.8539 2.75439 46.9606 3.9521 49.1177 6.31389C52.7589 10.3012 52.2767 16.1108 52.2545 16.3562L52.2533 16.3561C52.2338 16.5757 52.1501 16.7847 52.0124 16.957L51.134 18.0552V25.2544C51.134 28.246 49.8287 30.9379 47.759 32.793V35.7904L61.0701 42.0546C64.6019 43.7166 66.884 47.3125 66.884 51.2159V69.1294C66.884 69.4278 66.7654 69.7139 66.5545 69.9249C66.3435 70.1359 66.0573 70.2544 65.759 70.2544H14.009C13.7106 70.2544 13.4244 70.1359 13.2135 69.9249C13.0025 69.7139 12.884 69.4278 12.884 69.1294V51.2159C12.884 48.3834 14.0464 45.7283 16.0968 43.8175L7.03747 32.4094C6.39355 31.5986 6.15885 30.554 6.39383 29.543C6.74863 28.0164 7.53922 25.0724 8.84731 22.509C10.5842 19.1051 12.6993 17.3794 15.134 17.3794C19.0359 17.3794 21.3825 19.6883 22.2774 21.849C23.1091 23.8566 22.8319 25.8973 21.5545 27.1749C20.3578 28.3715 18.4858 29.5803 15.9901 30.7679C15.8372 30.8402 15.7028 30.9462 15.5968 31.078C15.4908 31.2097 15.4162 31.3638 15.3784 31.5287ZM29.5355 68.0044H35.3039L33.032 65.1435L29.5355 68.0044ZM38.1772 68.0044H40.9291L36.4419 62.3538L34.7738 63.7186L38.1772 68.0044ZM36.6186 57.9434L33.5263 53.6142C33.1657 53.1093 32.4618 52.9923 31.9569 53.3527L26.2499 57.4291L25.2253 61.5273C25.1643 61.7714 25.0232 61.988 24.8246 62.1424L17.2878 68.0044H25.9825L36.4157 59.4682C36.8729 59.094 36.962 58.4243 36.6186 57.9434ZM19.4087 63.5044H15.134V66.8292L19.4087 63.5044ZM28.8566 52.8021L16.5261 37.2749L14.8887 38.6783L27.1006 54.0562L28.8566 52.8021ZM15.134 51.2159V61.2544H22.3016L23.1368 60.6049L24.1676 56.4816C24.2323 56.2222 24.3875 55.9944 24.605 55.8391L25.2674 55.3659L17.5025 45.5878C15.9898 47.0636 15.134 49.074 15.134 51.2159ZM64.634 63.5044H55.634V68.0044H64.634V63.5044ZM43.7769 42.818L48.4988 45.179L51.8246 40.1903L47.0322 37.9351L43.7769 42.818ZM33.3259 20.3185C34.4911 19.5571 36.6815 18.5044 39.884 18.5044C43.0864 18.5044 45.2768 19.5571 46.442 20.3185L49.7612 16.1696C48.6027 14.6381 46.2935 13.8351 44.459 13.4236C42.0735 12.8884 39.9048 12.8794 39.8833 12.8794C39.8631 12.8794 37.6944 12.8884 35.3089 13.4236C33.4744 13.8351 31.1652 14.6381 30.0069 16.1696L33.3259 20.3185ZM29.9165 13.2191C33.62 10.6665 39.5695 10.6294 39.884 10.6294C40.1984 10.6294 46.1481 10.6665 49.8515 13.2191C49.584 11.5413 48.9429 9.45307 47.4459 7.82013C45.7331 5.95164 43.1889 5.00439 39.884 5.00439C36.579 5.00439 34.0348 5.95164 32.322 7.81999C30.825 9.45293 30.1839 11.5411 29.9165 13.2191ZM38.759 33.1294H41.009C45.3512 33.1294 48.884 29.5968 48.884 25.2544V20.8677L47.5124 22.5821C47.4136 22.7057 47.2898 22.807 47.1491 22.8794C47.0085 22.9519 46.8541 22.9938 46.6961 23.0026C46.5381 23.0116 46.38 22.9871 46.2322 22.9306C46.0843 22.8742 45.9501 22.787 45.8384 22.6749C45.8383 22.6749 45.3325 22.1907 44.3501 21.7147C43.0351 21.0776 41.5325 20.7544 39.884 20.7544C38.2354 20.7544 36.7328 21.0776 35.4178 21.7147C34.4342 22.1914 33.9283 22.6762 33.9234 22.681C33.812 22.7924 33.6783 22.879 33.531 22.935C33.3837 22.991 33.2262 23.0151 33.0688 23.0057C32.7493 22.9879 32.4556 22.832 32.2556 22.582L30.884 20.8677V25.2544C30.884 29.5968 34.4167 33.1294 38.759 33.1294ZM34.259 34.3208V36.1638L39.884 44.6013L45.509 36.1638V34.3208C44.1115 35.0182 42.5708 35.3806 41.009 35.3794H38.759C37.1971 35.3806 35.6564 35.0182 34.259 34.3208ZM27.9433 40.1903L31.2691 45.179L35.991 42.818L32.7357 37.935L27.9433 40.1903ZM23.409 42.3242L30.6907 51.4938C32.202 50.4476 34.2854 50.8058 35.3572 52.3063L38.4496 56.6356C39.3923 57.9556 39.2452 59.748 38.163 60.9033L43.802 68.0044H53.384V52.2544C53.384 51.956 53.5025 51.6699 53.7135 51.4589C53.9244 51.2479 54.2106 51.1294 54.509 51.1294C54.8073 51.1294 55.0935 51.2479 55.3045 51.4589C55.5154 51.6699 55.634 51.956 55.634 52.2544V61.2544H64.634V51.2159C64.634 48.1799 62.859 45.383 60.112 44.0903L53.8829 41.1589L49.82 47.2533C49.6679 47.4815 49.4377 47.6463 49.1727 47.7167C48.9076 47.7871 48.626 47.7582 48.3808 47.6354L42.5191 44.7045L41.009 46.97V54.5044C41.009 54.8028 40.8904 55.0889 40.6795 55.2999C40.4685 55.5109 40.1823 55.6294 39.884 55.6294C39.5856 55.6294 39.2994 55.5109 39.0885 55.2999C38.8775 55.0889 38.759 54.8028 38.759 54.5044V46.97L37.2488 44.7048L31.3871 47.6357C31.1419 47.7583 30.8603 47.7872 30.5953 47.7168C30.3303 47.6465 30.1001 47.4818 29.948 47.2536L25.885 41.1592L23.409 42.3242ZM13.1864 31.0207C13.2998 30.5258 13.524 30.0631 13.8422 29.6673C14.1603 29.2716 14.5641 28.9533 15.0231 28.7363C17.2547 27.6744 18.963 26.5843 19.9634 25.5839C20.5757 24.9716 20.6681 23.8435 20.1987 22.7101C19.5818 21.2207 17.9273 19.6294 15.134 19.6294C14.0887 19.6294 12.4972 20.3064 10.8514 23.5317C9.65225 25.8817 8.91692 28.6259 8.58547 30.0524C8.54627 30.2178 8.54516 30.39 8.58221 30.5559C8.61926 30.7218 8.69351 30.8771 8.79936 31.0102L13.4886 36.9152L15.1261 35.5117L13.8318 33.8817C13.1881 33.0713 12.953 32.0286 13.1864 31.0207Z" fill="#212121"/>
</svg>
