<svg width="24" height="24" viewBox="0 0 24 24" fill="none" xmlns="http://www.w3.org/2000/svg">
<path d="M7.47095 17.263L12 20.9742C11.6197 21.3637 11.255 21.7646 10.7178 21.9214C10.4486 22 10.1597 22 9.58202 22H6.64577C5.12431 22 3.69593 21.514 3.15891 19.9348C2.65447 18.4514 3.35188 15.9891 5.23816 16C5.93452 16.0041 6.44666 16.4237 7.47095 17.263Z" stroke="#212121" stroke-width="1.5" stroke-linecap="round" stroke-linejoin="round"/>
<path d="M12 21L16.5 10" stroke="#212121" stroke-width="1.5" stroke-linecap="round" stroke-linejoin="round"/>
<path d="M17.6182 3.4228L16.1309 8.99993C16.0533 9.29103 16.191 9.5966 16.4604 9.73134C16.7618 9.88202 17.1284 9.77103 17.2956 9.47848L20.1593 4.46697C20.593 3.70801 20.2239 2.74202 19.3946 2.4656C18.6373 2.21315 17.8239 2.65144 17.6182 3.4228Z" stroke="#212121" stroke-width="1.5" stroke-linecap="round" stroke-linejoin="round"/>
</svg>
